<?xml version="1.0" encoding="utf-8"?>
<!-- Generator: Adobe Illustrator 24.0.0, SVG Export Plug-In . SVG Version: 6.00 Build 0)  -->
<svg version="1.1" xmlns="http://www.w3.org/2000/svg" xmlns:xlink="http://www.w3.org/1999/xlink" x="0px" y="0px"
	 viewBox="0 0 256 256" enable-background="new 0 0 256 256" xml:space="preserve">
<g id="Layer_2">
</g>
<g id="Layer_1">
	<g>
	</g>
	<g>
		<path fill="#72C2E9" d="M240.515,23.049H15.485c-5.523,0-10,4.477-10,10v142.06c0,5.523,4.477,10.002,10,10.002h225.03
			c5.523,0,10-4.479,10-10.002V33.049C250.515,27.526,246.038,23.049,240.515,23.049z"/>
		
			<rect x="62.873" y="-2.534" transform="matrix(-1.836970e-16 1 -1 -1.836970e-16 232.0786 -23.9214)" fill="#EFEFEF" width="130.254" height="213.225"/>
		<polygon fill="#72C2E9" points="152.72,216.451 103.28,216.451 112.1,185.111 143.9,185.111 		"/>
		<polygon fill="#4BA5C8" points="146.48,194.281 109.52,194.281 112.1,185.111 143.9,185.111 		"/>
		<path fill="#72C2E9" d="M175.75,226.451v6.5h-95.5v-6.5c0-5.52,4.48-10,10-10h75.5C171.27,216.451,175.75,220.931,175.75,226.451z
			"/>
		<path fill="#7C7B7A" d="M83.55,70.955H57.63l0.006-7.501c0.002-2.523,2.048-4.568,4.571-4.568h13.375
			c1.622,0,3.22-0.392,4.658-1.143l5.586-2.917C88.652,60.469,87.473,66.777,83.55,70.955z"/>
		<path fill="#FFB69F" d="M70.588,93.456L70.588,93.456c-7.156,0-12.957-5.801-12.957-12.957v-9.544h25.915v9.544
			C83.545,87.655,77.744,93.456,70.588,93.456z"/>
		<path fill="#FC5D3D" d="M95.499,108.555v15.901H45.289v-15.901c0-8.335,6.764-15.099,15.099-15.099H80.4
			C88.734,93.456,95.499,100.22,95.499,108.555z"/>
		<path fill="#FC5D3D" d="M196.891,70.789l-33.18,33.29l-17.91-43.46c5.52-2.28,11.57-3.54,17.91-3.54
			C176.661,57.079,188.391,62.319,196.891,70.789z"/>
		<path fill="#72C2E9" d="M209.701,94.339l-45.99,9.74l33.18-33.29C203.231,77.109,207.781,85.239,209.701,94.339z"/>
		<path fill="#F0C020" d="M183.771,146.589l-20.06-42.51l45.99-9.74C214.213,115.803,203.382,137.325,183.771,146.589z"/>
		<path fill="#7D7B79" d="M163.711,104.079l-20.63,42.23c-15.62-7.64-26.37-23.68-26.37-42.23c0-19.62,12.02-36.42,29.09-43.46
			L163.711,104.079z"/>
		<path fill="#13BF6D" d="M183.771,146.589c-6.08,2.88-12.88,4.49-20.06,4.49c-7.4,0-14.41-1.71-20.63-4.77l20.63-42.23
			L183.771,146.589z"/>
		<g>
			<path fill="#FFFFFF" d="M225.612,163.254H46.867c-1.381,0-2.5-1.119-2.5-2.5s1.119-2.5,2.5-2.5h176.245V48.5
				c0-1.381,1.119-2.5,2.5-2.5s2.5,1.119,2.5,2.5v112.254C228.112,162.135,226.993,163.254,225.612,163.254z M36.867,163.254h-6.479
				c-1.381,0-2.5-1.119-2.5-2.5s1.119-2.5,2.5-2.5h6.479c1.381,0,2.5,1.119,2.5,2.5S38.248,163.254,36.867,163.254z"/>
		</g>
		<circle cx="21.39" cy="78.95" r="2.5"/>
		<path d="M250.52,121.87c-1.38,0-2.5,1.13-2.5,2.51c0,1.37,1.12,2.49,2.5,2.49c1.37,0,2.49-1.12,2.49-2.49
			C253.01,123,251.89,121.87,250.52,121.87z"/>
		<circle cx="102.25" cy="232.95" r="2.5"/>
		<g>
			<path d="M18.89,169.21c0,1.38,1.114,2.49,2.5,2.49h213.22c1.401,0,2.5-1.129,2.5-2.49V38.95c0-1.36-1.088-2.5-2.5-2.5H21.39
				c-1.361,0-2.5,1.093-2.5,2.5v30c0,1.38,1.12,2.5,2.5,2.5s2.5-1.12,2.5-2.5v-27.5h208.22v125.26H23.89V88.95
				c0-1.38-1.12-2.5-2.5-2.5s-2.5,1.12-2.5,2.5V169.21z"/>
			<path d="M2.979,175.11c0.011,6.89,5.61,12.5,12.5,12.5h93.32l-7.412,26.34H90.25c-6.891,0.01-12.5,5.61-12.5,12.5v6.5
				c0,1.393,1.136,2.5,2.5,2.5h12c1.38,0,2.5-1.12,2.5-2.5c0-1.38-1.12-2.5-2.5-2.5h-9.5v-4c0.01-4.13,3.37-7.49,7.5-7.5
				c5.913,0,66.413,0,75.5,0c4.13,0.01,7.49,3.37,7.5,7.5v4h-61c-1.38,0-2.5,1.12-2.5,2.5c0,1.38,1.12,2.5,2.5,2.5h63.5
				c1.369,0,2.5-1.097,2.5-2.5v-6.5c0-6.89-5.61-12.49-12.5-12.5h-11.137l-7.412-26.34h93.319c6.891,0,12.49-5.61,12.49-12.5v-40.74
				c0-1.37-1.12-2.49-2.49-2.49c-1.38,0-2.5,1.12-2.5,2.49v40.74c-0.01,4.13-3.38,7.49-7.5,7.5H15.479
				c-4.12-0.01-7.489-3.37-7.5-7.5V33.05c0.011-4.13,3.38-7.5,7.5-7.5h225.04c4.12,0,7.49,3.37,7.5,7.5v81.32
				c0,1.38,1.12,2.51,2.5,2.51s2.5-1.13,2.5-2.51c0,0,0-0.01-0.01-0.01V33.05c0-6.89-5.6-12.5-12.49-12.5H15.479
				c-6.89,0-12.5,5.61-12.5,12.5V175.11z M106.582,213.95l7.412-26.339h28.014l7.412,26.339H106.582z"/>
			<path d="M42.789,108.555v15.901c0,1.381,1.119,2.5,2.5,2.5s2.5-1.119,2.5-2.5v-15.901c0-6.947,5.652-12.599,12.6-12.599h20.011
				c6.947,0,12.6,5.652,12.6,12.599v15.901c0,1.381,1.119,2.5,2.5,2.5s2.5-1.119,2.5-2.5v-15.901
				c0-9.208-7.112-16.773-16.129-17.524c2.581-2.764,4.175-6.461,4.175-10.532V71.88c4.186-5.05,5.077-12.047,2.015-18.17
				c-0.642-1.285-2.171-1.719-3.39-1.1l-5.59,2.92c-1.07,0.56-2.28,0.86-3.5,0.86H62.21c-3.9,0-7.07,3.17-7.07,7.06
				c-0.011,8.452-0.009,4.023-0.009,17.049c0,4.062,1.587,7.752,4.158,10.513C50.098,91.584,42.789,99.222,42.789,108.555z
				 M60.131,80.499V73.46h20.914v7.039c0,5.766-4.691,10.458-10.457,10.458S60.131,86.265,60.131,80.499z M62.21,61.39h13.37
				c3.625,0,5.694-1.364,8.92-3.05c0.948,3.679,0.06,7.363-2.097,10.115H60.13l0.01-4.995C60.14,62.32,61.069,61.39,62.21,61.39z"/>
			<path d="M95.5,134.38H45.29c-1.38,0-2.5,1.12-2.5,2.5c0,1.37,1.12,2.5,2.5,2.5H95.5c1.38,0,2.5-1.13,2.5-2.5
				C98,135.5,96.88,134.38,95.5,134.38z"/>
			<path d="M95.5,145.88H45.29c-1.38,0-2.5,1.12-2.5,2.5c0,1.37,1.12,2.49,2.5,2.49H95.5c1.38,0,2.5-1.12,2.5-2.49
				C98,147,96.88,145.88,95.5,145.88z"/>
		</g>
		<path d="M163.711,153.579c7.393,0,14.5-1.591,21.125-4.729c0,0,0.001,0,0.002-0.001c20.227-9.554,32.121-32.129,27.309-55.022
			c0-0.002,0-0.003,0-0.005c-4.637-21.971-24.131-39.244-48.436-39.244c-26.975,0-49.5,21.73-49.5,49.5
			C114.211,132.118,137.011,153.579,163.711,153.579z M196.848,74.374c4.656,5.187,8.01,11.35,9.822,18.051
			c-12.368,2.619-22.331,4.729-35.256,7.467C179.086,92.194,173.816,97.481,196.848,74.374z M146.452,145.104l17.22-35.25
			c9.928,21.039,5.166,10.946,16.743,35.481c-5.292,2.154-10.899,3.244-16.704,3.244
			C157.687,148.579,151.893,147.411,146.452,145.104z M184.934,143.195L167.32,105.87c13.368-2.832,26.749-5.665,40.379-8.552
			C210.579,116.242,201.025,134.444,184.934,143.195z M163.711,59.579c11.021,0,21.437,3.982,29.596,11.265
			c-25.356,25.44-24.445,24.527-28.715,28.811L149.091,62.04C153.777,60.406,158.684,59.579,163.711,59.579z M119.211,104.079
			c0-17.258,9.834-32.748,25.258-40.131c8.813,21.386,7.705,18.697,16.502,40.044c-4.382,8.969-14.592,29.871-19.008,38.911
			C127.865,135.027,119.211,120.371,119.211,104.079z"/>
	</g>
</g>
</svg>
